<svg width="16" height="22" viewBox="0 0 16 22" fill="none" xmlns="http://www.w3.org/2000/svg">
<path d="M8.0102 17.108C6.7622 17.108 5.6282 16.832 4.6082 16.28C3.6002 15.716 2.8082 14.948 2.2322 13.976C1.6682 13.004 1.3862 11.912 1.3862 10.7C1.3862 9.488 1.6682 8.396 2.2322 7.424C2.8082 6.452 3.6002 5.69 4.6082 5.138C5.6282 4.574 6.7622 4.292 8.0102 4.292C9.2582 4.292 10.3802 4.568 11.3762 5.12C12.3842 5.672 13.1762 6.44 13.7522 7.424C14.3282 8.396 14.6162 9.488 14.6162 10.7C14.6162 11.912 14.3282 13.01 13.7522 13.994C13.1762 14.966 12.3842 15.728 11.3762 16.28C10.3802 16.832 9.2582 17.108 8.0102 17.108ZM8.0102 15.92C9.0062 15.92 9.9062 15.698 10.7102 15.254C11.5142 14.798 12.1442 14.174 12.6002 13.382C13.0562 12.578 13.2842 11.684 13.2842 10.7C13.2842 9.716 13.0562 8.828 12.6002 8.036C12.1442 7.232 11.5142 6.608 10.7102 6.164C9.9062 5.708 9.0062 5.48 8.0102 5.48C7.0142 5.48 6.1082 5.708 5.2922 6.164C4.4882 6.608 3.8522 7.232 3.3842 8.036C2.9282 8.828 2.7002 9.716 2.7002 10.7C2.7002 11.684 2.9282 12.578 3.3842 13.382C3.8522 14.174 4.4882 14.798 5.2922 15.254C6.1082 15.698 7.0142 15.92 8.0102 15.92ZM12.9422 3.14H14.0042L3.0962 18.26H2.0162L12.9422 3.14Z" fill="black"/>
</svg>
